Coordinates
version=1
nRows=26
nColumns=22
inDegrees=yes

Units are S.I. units (second, meters, Newtons, ...)
If the header above contains a line with 'inDegrees', this indicates whether rotational values are in degrees (yes) or radians (no).

endheader
time	pelvis_tilt	pelvis_list	pelvis_rotation	pelvis_tx	pelvis_ty	pelvis_tz	hip_flexion_r	hip_adduction_r	hip_rotation_r	knee_angle_r	ankle_angle_r	subtalar_angle_r	hip_flexion_l	hip_adduction_l	hip_rotation_l	knee_angle_l	ankle_angle_l	subtalar_angle_l	lumbar_extension	lumbar_bending	lumbar_rotation
      0.01000000	     -0.21853568	      0.19369716	    180.97230602	      0.11225771	      1.08316454	      1.20568956	     -5.10136293	      3.18527488	     -3.05161956	     -7.25152644	     12.27607620	     -4.01038511	     -3.53819578	      0.50888495	      1.75451649	    -10.28562868	     13.87343876	     -1.67823668	     -1.31328857	     -2.07989906	     -4.86292549
      0.02000000	     -0.21545783	      0.19825513	    180.96421309	      0.11213049	      1.08314595	      1.20577643	     -5.10490210	      3.18351875	     -3.05008707	     -7.25199278	     12.27569372	     -4.00744474	     -3.54207501	      0.51109461	      1.75776597	    -10.28795937	     13.87320200	     -1.68101667	     -1.30864981	     -2.07669865	     -4.86361495
      0.03000000	     -0.21156572	      0.20389405	    180.95176522	      0.11198836	      1.08312516	      1.20588159	     -5.10863343	      3.18104977	     -3.04752492	     -7.25132069	     12.27635740	     -4.00362098	     -3.54669051	      0.51404740	      1.75950401	    -10.28984940	     13.87463525	     -1.68485402	     -1.30416016	     -2.07062429	     -4.86492283
      0.04000000	     -0.20453126	      0.22229388	    180.92008010	      0.11181455	      1.08309523	      1.20596571	     -5.11443221	      3.19077334	     -3.00007057	     -7.24406786	     12.28562244	     -3.96479290	     -3.56229905	      0.50358883	      1.73450897	    -10.26907740	     13.89748738	     -1.72561688	     -1.29202790	     -2.05027186	     -4.85634054
      0.05000000	     -0.20042045	      0.22749309	    180.90352113	      0.11167671	      1.08307479	      1.20610318	     -5.11748970	      3.18544210	     -3.00126899	     -7.24271786	     12.28525702	     -3.96236122	     -3.56403870	      0.50956064	      1.73541957	    -10.27673673	     13.89681283	     -1.72809924	     -1.29237179	     -2.04244027	     -4.85832268
      0.06000000	     -0.19496359	      0.24239761	    180.86189617	      0.11153627	      1.08304721	      1.20621089	     -5.12008683	      3.18833990	     -2.95216431	     -7.24025514	     12.28963275	     -3.90592382	     -3.56258215	      0.50495048	      1.67442815	    -10.28994729	     13.90923735	     -1.78903329	     -1.29098127	     -2.02264271	     -4.83939236
      0.07000000	     -0.18619622	      0.24709746	    180.84356250	      0.11138798	      1.08302113	      1.20636742	     -5.11822788	      3.18109706	     -2.94974924	     -7.24098861	     12.29053862	     -3.90000188	     -3.56812389	      0.51186851	      1.66932349	    -10.28154095	     13.91176030	     -1.79554224	     -1.28555138	     -2.01361347	     -4.85670202
      0.08000000	     -0.17521753	      0.25159941	    180.82390618	      0.11124292	      1.08299179	      1.20652554	     -5.11577420	      3.17358108	     -2.94247790	     -7.23805510	     12.29554007	     -3.89185243	     -3.56937706	      0.51886296	      1.65775265	    -10.27681718	     13.91618898	     -1.80479318	     -1.27906712	     -2.00517014	     -4.87469250
      0.09000000	     -0.16682865	      0.25706996	    180.80706945	      0.11112094	      1.08296727	      1.20668927	     -5.11503175	      3.16739274	     -2.94387258	     -7.23371953	     12.29697158	     -3.89044410	     -3.56935578	      0.52510126	      1.65732297	    -10.27796157	     13.91708779	     -1.80633876	     -1.28227024	     -1.99842586	     -4.88147550
      0.10000000	     -0.15046629	      0.25971113	    180.78871197	      0.11096280	      1.08292933	      1.20686453	     -5.10870026	      3.15693940	     -2.93093238	     -7.22953620	     12.30563162	     -3.88041261	     -3.56940500	      0.53400182	      1.63379994	    -10.26514042	     13.92626208	     -1.81723463	     -1.26873581	     -1.99121209	     -4.91000953
      0.11000000	     -0.11161137	      0.26216328	    180.76168782	      0.11084418	      1.08285699	      1.20703684	     -5.07434051	      3.14417601	     -2.89815629	     -7.22910473	     12.32680764	     -3.83467842	     -3.53138971	      0.54522088	      1.60300073	    -10.27683455	     13.93478487	     -1.85936351	     -1.23645658	     -1.98683426	     -4.90516457
      0.12000000	     -0.09739608	      0.26783818	    180.74923042	      0.11068806	      1.08282093	      1.20723451	     -5.06948336	      3.13617864	     -2.90287916	     -7.22594466	     12.32774346	     -3.83057589	     -3.53455786	      0.55176295	      1.59418012	    -10.26188712	     13.93868026	     -1.86284558	     -1.23020931	     -1.97783413	     -4.92565338
      0.13000000	     -0.07927780	      0.27243283	    180.74051519	      0.11053723	      1.08277735	      1.20744773	     -5.06421491	      3.12666002	     -2.90174238	     -7.21563046	     12.33469415	     -3.82208079	     -3.53029023	      0.55997080	      1.58557648	    -10.25122366	     13.94501983	     -1.86890872	     -1.22153249	     -1.97083590	     -4.94479585
      0.14000000	     -0.05726001	      0.27712643	    180.73259813	      0.11038037	      1.08272584	      1.20767220	     -5.05663714	      3.11613040	     -2.89721750	     -7.20304474	     12.34370756	     -3.80891923	     -3.52133037	      0.56880744	      1.57718103	    -10.24244379	     13.95348480	     -1.87758835	     -1.20847212	     -1.96360761	     -4.96444414
      0.15000000	     -0.02994818	      0.28281908	    180.72659908	      0.11022791	      1.08266428	      1.20790712	     -5.04460867	      3.10607876	     -2.89087760	     -7.18798738	     12.35383207	     -3.78883133	     -3.50424133	      0.57715984	      1.57043239	    -10.23765244	     13.96353629	     -1.89051823	     -1.19004482	     -1.95528305	     -4.98486057
      0.16000000	      0.02638912	      0.29477415	    180.72817854	      0.11012663	      1.08256166	      1.20816673	     -4.99192217	      3.10080440	     -2.88860487	     -7.18631808	     12.36208966	     -3.72296333	     -3.43763917	      0.58092410	      1.58028213	    -10.26290831	     13.97701655	     -1.93291855	     -1.14465626	     -1.93940390	     -5.00314067
      0.17000000	      0.04587881	      0.30241086	    180.72450867	      0.10998863	      1.08250873	      1.20842012	     -4.98781333	      3.09169166	     -2.89376935	     -7.17025362	     12.36943950	     -3.71517209	     -3.42958346	      0.58793772	      1.57169094	    -10.25344597	     13.98277398	     -1.93907282	     -1.13973697	     -1.92884022	     -5.02206932
      0.18000000	      0.07667205	      0.31283963	    180.73392800	      0.10988238	      1.08243884	      1.20870215	     -4.97842705	      3.08587549	     -2.89176342	     -7.13933242	     12.38101065	     -3.69127126	     -3.39315277	      0.59272299	      1.57872981	    -10.27118080	     13.99839836	     -1.95726235	     -1.12726991	     -1.91542892	     -5.05430207
      0.19000000	      0.12799174	      0.33374301	    180.75508011	      0.10980500	      1.08233820	      1.20901379	     -4.94113032	      3.09042589	     -2.90960308	     -7.11719447	     12.38277048	     -3.63689533	     -3.32399032	      0.58755905	      1.60129849	    -10.30526450	     14.02796242	     -1.99756253	     -1.09559379	     -1.88945099	     -5.09513315
      0.20000000	      0.18595032	      0.35312193	    180.76364402	      0.10973936	      1.08223210	      1.20932193	     -4.88477251	      3.09020473	     -2.92940011	     -7.11642674	     12.38855247	     -3.56305553	     -3.25106725	      0.58609349	      1.61656232	    -10.33323787	     14.04400748	     -2.04691641	     -1.05926668	     -1.86434690	     -5.12444502
      0.21000000	      0.20737704	      0.36533760	    180.76179426	      0.10962835	      1.08217369	      1.20961259	     -4.88906932	      3.08369902	     -2.93473530	     -7.07830089	     12.40145172	     -3.54961269	     -3.22666026	      0.59157166	      1.61793630	    -10.34881878	     14.05206746	     -2.05590114	     -1.06285554	     -1.85210999	     -5.12543609
      0.22000000	      0.25025903	      0.39461593	    180.77057982	      0.10954355	      1.08208209	      1.20993993	     -4.86772029	      3.09399865	     -2.93234641	     -7.04489537	     12.40043231	     -3.48134597	     -3.16281967	      0.58056775	      1.62558655	    -10.39254218	     14.09804141	     -2.09809777	     -1.04636867	     -1.81542123	     -5.16663590
      0.23000000	      0.27353088	      0.41148012	    180.76526684	      0.10942582	      1.08201948	      1.21024900	     -4.87319702	      3.09029525	     -2.94503764	     -7.00144093	     12.41562109	     -3.45963368	     -3.13063279	      0.58368200	      1.63105802	    -10.42088489	     14.10423111	     -2.10970097	     -1.05088553	     -1.80045868	     -5.15031165
      0.24000000	      0.32085774	      0.44829442	    180.76723404	      0.10933472	      1.08191547	      1.21059621	     -4.85071203	      3.10536822	     -2.93608388	     -6.96144367	     12.41840619	     -3.36001373	     -3.05237643	      0.56695956	      1.62649034	    -10.48470569	     14.16705787	     -2.16394645	     -1.03100266	     -1.75504669	     -5.18717529
      0.25000000	      0.36625840	      0.47812905	    180.76293892	      0.10923067	      1.08181621	      1.21094554	     -4.82969585	      3.11160671	     -2.94032444	     -6.92347894	     12.43285937	     -3.26038589	     -2.97781024	      0.55938475	      1.62734815	    -10.54718473	     14.20117224	     -2.21272137	     -1.01350833	     -1.72248656	     -5.18426235
      0.26000000	      0.38542140	      0.49628057	    180.74954827	      0.10911030	      1.08175565	      1.21129281	     -4.83694963	      3.10462185	     -2.94841051	     -6.88505707	     12.44632970	     -3.23908054	     -2.94370448	      0.56545359	      1.64076542	    -10.58903895	     14.21008500	     -2.22403316	     -1.02793458	     -1.70704547	     -5.15866866
